<svg width="48" height="48" viewBox="0 0 48 48" fill="none" xmlns="http://www.w3.org/2000/svg"><rect width="48" height="48" rx="12" fill="#026CDF"></rect><path fill-rule="evenodd" clip-rule="evenodd" d="M23.5551 32.6111C23.5551 31.726 23.6904 30.9271 23.8222 30.3951L25.9929 20.4297H31.3149L32.2498 16.0888H26.9261L28.3936 9.31061L22.0066 11.3949L20.9838 16.0888H16.688L15.7498 20.4297H20.0556L18.3718 28.1385C17.9729 29.9525 17.6128 31.6804 17.6128 33.4523C17.6128 37.8421 20.4512 39.4383 24.4866 39.4383C25.5094 39.4383 26.659 39.1241 27.6835 38.9028L28.7029 34.2934C27.9439 34.6059 26.8873 34.8255 25.8171 34.8255C24.4866 34.8255 23.5551 33.9843 23.5551 32.6111Z" fill="white"></path></svg>